<svg xmlns="http://www.w3.org/2000/svg" viewBox="0 0 9.36 9.26"><defs><style>.cls-1{fill:#f2f1f0;}</style></defs><title>ic_home</title><g id="Слой_2" data-name="Слой 2"><g id="Слой_1-2" data-name="Слой 1"><g id="Icons"><g id="ic_home"><path class="cls-1" d="M4.75,2.17,1.23,5.59q0,1.37,0,2.75a.89.89,0,0,0,.67.89,1.07,1.07,0,0,0,.26,0h5a.9.9,0,0,0,.9-.67,1.12,1.12,0,0,0,0-.26q0-1.35,0-2.7ZM5.73,8H3.63s0,0,0,0q0-.56,0-1.12a1.05,1.05,0,0,1,2.08-.21,1.18,1.18,0,0,1,0,.2c0,.38,0,.76,0,1.15C5.73,7.92,5.73,7.94,5.73,8Z"/><path class="cls-1" d="M9.13,4.17C7,1.91,5.35.3,5.06.12A.77.77,0,0,0,4.68,0a.79.79,0,0,0-.41.15c-.29.21-1.9,1.8-4.05,4a.68.68,0,0,0,0,1,.67.67,0,0,0,.93,0c2-1.91,3.4-3.31,3.5-3.39a.21.21,0,0,1,.13-.06.22.22,0,0,1,.14.06L8.22,5.12a.66.66,0,1,0,.92-1Z"/></g></g></g></g></svg>