<svg xmlns="http://www.w3.org/2000/svg" viewBox="0 0 8.8 5.7"><defs><style>.cls-1{fill:#fff;}</style></defs><title>ic_undo</title><g id="Слой_2" data-name="Слой 2"><g id="Слой_1-2" data-name="Слой 1"><path class="cls-1" d="M2.42.91a3.71,3.71,0,0,0-.8,1L1,1.61a.81.81,0,0,0-.69.16A.78.78,0,0,0,0,2.6l1,2a.76.76,0,0,0,.9.35l2-.93a.8.8,0,0,0,.41-.87.82.82,0,0,0-.49-.53l-.73-.27.07-.11a2.4,2.4,0,0,1,1.05-.67,2.3,2.3,0,0,1,1.49,0A2.31,2.31,0,0,1,7,2.72a2.58,2.58,0,0,1,.18,2,.76.76,0,0,0,1.43.52,3.94,3.94,0,0,0-.09-2.91,4,4,0,0,0-2.15-2A3.94,3.94,0,0,0,2.42.91Z"/></g></g></svg>