<svg xmlns="http://www.w3.org/2000/svg" viewBox="0 0 5.99 4.43"><defs><style>.cls-1{fill:#fff;}.cls-2{fill:none;stroke:#fff;stroke-linecap:round;stroke-miterlimit:10;stroke-width:0.5px;}</style></defs><title>ic_volume_off</title><g id="Слой_2" data-name="Слой 2"><g id="Слой_1-2" data-name="Слой 1"><g id="Icons"><g id="ic_volume_off"><path class="cls-1" d="M3.21,0a.32.32,0,0,0-.33.07l-1,1a.31.31,0,0,1-.23.1H1a1,1,0,1,0,0,2h.62a.33.33,0,0,1,.13,0,.33.33,0,0,1,.11.08l1,1a.32.32,0,0,0,.54-.22V.31A.32.32,0,0,0,3.21,0Z"/><line class="cls-2" x1="4.4" y1="2.88" x2="5.74" y2="1.54"/><line class="cls-2" x1="5.74" y1="2.88" x2="4.4" y2="1.54"/></g></g></g></g></svg>