<svg xmlns="http://www.w3.org/2000/svg" viewBox="0 0 6.25 4.43"><defs><style>.cls-1{fill:#fff;}.cls-2{fill:none;stroke:#fff;stroke-linecap:round;stroke-miterlimit:10;stroke-width:0.5px;}</style></defs><title>ic_volume_on</title><g id="Слой_2" data-name="Слой 2"><g id="Слой_1-2" data-name="Слой 1"><g id="Icons"><g id="ic_volume_on"><path class="cls-1" d="M3.21,0a.32.32,0,0,0-.33.07l-1,1a.31.31,0,0,1-.23.1H1a1,1,0,1,0,0,2h.62a.33.33,0,0,1,.13,0,.33.33,0,0,1,.11.08l1,1a.32.32,0,0,0,.54-.22V.31A.32.32,0,0,0,3.21,0Z"/><path class="cls-1" d="M4.9,3.05a1.42,1.42,0,0,0,.31-.84,1.4,1.4,0,0,0-.31-.86C4.84,1.28,4.61,1,4.37,1a.32.32,0,0,0-.17.07.35.35,0,0,0-.12.25V3.07a.33.33,0,0,0,.06.19.37.37,0,0,0,.22.12C4.6,3.42,4.82,3.16,4.9,3.05Z"/><path class="cls-2" d="M4.83.36A2,2,0,0,1,4.83,4"/></g></g></g></g></svg>